<svg xmlns="http://www.w3.org/2000/svg" viewBox="0 0 150 150"><defs><style>.cls-1,.cls-2{fill:#76cc6e;}.cls-1,.cls-3{stroke:#31842c;stroke-linecap:round;stroke-linejoin:round;stroke-width:2.2px;}.cls-3{fill:none;}</style></defs><title>kategori3</title><g id="Layer_2" data-name="Layer 2"><polygon class="cls-1" points="93.31 143.21 56.69 143.21 48.14 92.34 101.86 92.34 93.31 143.21"/><path class="cls-2" d="M110.68,86.34c0,3.58-3.64,6.51-8.09,6.51H47.41c-4.45,0-8.09-2.93-8.09-6.51s3.64-6.51,8.09-6.51h55.19C107,79.83,110.68,82.76,110.68,86.34Z"/><path class="cls-3" d="M110.68,86.34c0,3.58-3.64,6.51-8.09,6.51H47.41c-4.45,0-8.09-2.93-8.09-6.51s3.64-6.51,8.09-6.51h55.19C107,79.83,110.68,82.76,110.68,86.34Z"/><path class="cls-1" d="M68.24,10.54c4.55,4.55,3.69,12.78,3.69,12.78s-8.23.86-12.78-3.69S55.46,6.86,55.46,6.86,63.69,6,68.24,10.54Z"/><path class="cls-1" d="M81.76,10.54c-4.55,4.55-3.69,12.78-3.69,12.78s8.24.86,12.78-3.69S94.54,6.86,94.54,6.86,86.31,6,81.76,10.54Z"/><path class="cls-1" d="M90.92,79.89a119,119,0,0,0,3.77-27.8c0-20.81-8.82-21.53-19.7-21.53s-19.7.72-19.7,21.53a118.92,118.92,0,0,0,3.77,27.8Z"/><line class="cls-1" x1="56.61" y1="46.03" x2="70.15" y2="46.03"/><line class="cls-1" x1="79.94" y1="57.5" x2="93.47" y2="57.5"/><line class="cls-1" x1="56.54" y1="64.42" x2="66.92" y2="64.42"/></g></svg>