<svg xmlns="http://www.w3.org/2000/svg" viewBox="0 0 150 150"><defs><style>.cls-1,.cls-2{fill:#76cc6e;}.cls-1,.cls-3{stroke:#31842c;stroke-linecap:round;stroke-linejoin:round;stroke-width:2.2px;}.cls-3{fill:none;}</style></defs><title>kategori5</title><g id="Layer_2" data-name="Layer 2"><polygon class="cls-1" points="91.3 144.19 53.63 144.19 44.84 91.88 100.08 91.88 91.3 144.19"/><path class="cls-2" d="M109.15,85.71c0,3.68-3.64,6.69-8.09,6.69H43.86c-4.45,0-8.09-3-8.09-6.69S39.41,79,43.86,79h57.2C105.51,79,109.15,82,109.15,85.71Z"/><path class="cls-3" d="M109.15,85.71c0,3.68-3.64,6.69-8.09,6.69H43.86c-4.45,0-8.09-3-8.09-6.69S39.41,79,43.86,79h57.2C105.51,79,109.15,82,109.15,85.71Z"/><path class="cls-1" d="M101,28.27c-4.68,4.68-3.79,13.15-3.79,13.15s8.47.89,13.15-3.79,3.79-13.14,3.79-13.14S105.69,23.59,101,28.27Z"/><path class="cls-1" d="M110.37,50.52c4.68,4.68,3.79,13.14,3.79,13.14s-8.47.88-13.15-3.79-3.79-13.14-3.79-13.14S105.69,45.85,110.37,50.52Z"/><rect class="cls-1" x="78.18" y="23.07" width="10.97" height="55.94"/><line class="cls-1" x1="74.92" y1="23.07" x2="92.41" y2="23.07"/><rect class="cls-1" x="57.79" y="42.62" width="10.97" height="36.4"/><line class="cls-1" x1="54.53" y1="42.62" x2="92.51" y2="42.62"/><line class="cls-1" x1="54.53" y1="62.54" x2="92.51" y2="62.54"/></g></svg>