<svg xmlns="http://www.w3.org/2000/svg" viewBox="0 0 150 150"><defs><style>.cls-1,.cls-2{fill:#76cc6e;}.cls-1,.cls-3{stroke:#31842c;stroke-linecap:round;stroke-linejoin:round;stroke-width:2.2px;}.cls-3{fill:none;}</style></defs><title>kategori1</title><g id="Layer_3" data-name="Layer 3"><path class="cls-1" d="M84.79,58.81c-4.61,4.61-3.74,13-3.74,13s8.35.87,13-3.74,3.74-13,3.74-13S89.4,54.2,84.79,58.81Z"/><polygon class="cls-1" points="93.57 144.83 56.43 144.83 47.76 93.24 102.24 93.24 93.57 144.83"/><path class="cls-2" d="M111.18,87.16c0,3.63-3.64,6.6-8.09,6.6H46.91c-4.45,0-8.09-3-8.09-6.6s3.64-6.6,8.09-6.6h56.19C107.54,80.56,111.18,83.53,111.18,87.16Z"/><path class="cls-3" d="M111.18,87.16c0,3.63-3.64,6.6-8.09,6.6H46.91c-4.45,0-8.09-3-8.09-6.6s3.64-6.6,8.09-6.6h56.19C107.54,80.56,111.18,83.53,111.18,87.16Z"/><line class="cls-3" x1="74.22" y1="46.28" x2="74.22" y2="80.56"/><path class="cls-1" d="M63.65,58.81c4.61,4.61,3.74,13,3.74,13s-8.35.87-13-3.74-3.74-13-3.74-13S59,54.2,63.65,58.81Z"/><path class="cls-1" d="M89.63,13.77s-4,1-8.93,2.54c-3.26-6-6.49-11.13-6.49-11.13S71,10.27,67.73,16.3c-4.9-1.56-8.92-2.53-8.92-2.53s.25,12.29,2.34,20.72a13.13,13.13,0,0,0,26.1.14C89.37,26.19,89.63,13.77,89.63,13.77Z"/><path class="cls-3" d="M74.21,41.33A8.14,8.14,0,0,1,66.08,34"/></g></svg>