<svg xmlns="http://www.w3.org/2000/svg" viewBox="0 0 150 150"><defs><style>.cls-1,.cls-2{fill:#76cc6e;}.cls-1,.cls-3{stroke:#31842c;stroke-linecap:round;stroke-linejoin:round;stroke-width:2.2px;}.cls-3{fill:none;}</style></defs><title>kategori2</title><g id="Layer_2" data-name="Layer 2"><polygon class="cls-1" points="94.15 144.83 55.85 144.83 46.91 91.63 103.09 91.63 94.15 144.83"/><path class="cls-2" d="M112.31,85.36c0,3.74-3.64,6.8-8.09,6.8H45.78c-4.45,0-8.09-3.06-8.09-6.8s3.64-6.8,8.09-6.8h58.44C108.67,78.55,112.31,81.62,112.31,85.36Z"/><path class="cls-3" d="M112.31,85.36c0,3.74-3.64,6.8-8.09,6.8H45.78c-4.45,0-8.09-3.06-8.09-6.8s3.64-6.8,8.09-6.8h58.44C108.67,78.55,112.31,81.62,112.31,85.36Z"/><path class="cls-1" d="M87.12,30a12.83,12.83,0,0,0-3.92-14.27,8.48,8.48,0,1,0-16.42,0A12.83,12.83,0,0,0,62.87,30a18.46,18.46,0,1,0,24.25,0Z"/><path class="cls-1" d="M74.72,35a7,7,0,0,1-7-7"/><path class="cls-1" d="M74.72,50a7,7,0,0,1-7-7"/><path class="cls-1" d="M75,41.64a7,7,0,0,0,7-7"/><line class="cls-1" x1="75" y1="21.79" x2="75" y2="78.61"/></g></svg>