<svg xmlns="http://www.w3.org/2000/svg" viewBox="0 0 150 150"><defs><style>.cls-1,.cls-2{fill:#76cc6e;}.cls-1,.cls-3{stroke:#31842c;stroke-linecap:round;stroke-linejoin:round;stroke-width:2.2px;}.cls-3{fill:none;}</style></defs><title>kategori4</title><g id="Layer_2" data-name="Layer 2"><polygon class="cls-1" points="94.06 144.83 55.55 144.83 46.57 91.35 103.04 91.35 94.06 144.83"/><path class="cls-2" d="M112.3,85c0,3.76-3.64,6.84-8.09,6.84H45.37c-4.45,0-8.09-3.08-8.09-6.84s3.64-6.84,8.09-6.84h58.84C108.66,78.2,112.3,81.28,112.3,85Z"/><path class="cls-3" d="M112.3,85c0,3.76-3.64,6.84-8.09,6.84H45.37c-4.45,0-8.09-3.08-8.09-6.84s3.64-6.84,8.09-6.84h58.84C108.66,78.2,112.3,81.28,112.3,85Z"/><line class="cls-1" x1="74.8" y1="52.9" x2="74.8" y2="78.2"/><path class="cls-1" d="M45.64,56.75a29.15,29.15,0,0,1,58.3,0c0,8.49-9.41,21.45-9.41,21.45H55.05S45.64,65.24,45.64,56.75Z"/><line class="cls-1" x1="90.42" y1="78.2" x2="59.17" y2="78.2"/><path class="cls-1" d="M93.67,56.75c0,3.12-2.94,16.82-5.82,21.45"/><path class="cls-1" d="M61.73,78.2C58.9,73.65,55.91,60,55.91,56.75"/><path class="cls-1" d="M96.23,11.16a13,13,0,0,0-11.91,18,29.16,29.16,0,0,1,12,7.86,13,13,0,0,0-.05-25.91Z"/><path class="cls-1" d="M49.46,42.34a29.3,29.3,0,0,1,7.27-8.46,8.52,8.52,0,1,0-8.52,8.56A8.36,8.36,0,0,0,49.46,42.34Z"/><line class="cls-1" x1="69.51" y1="28.09" x2="68.08" y2="22.27"/><line class="cls-1" x1="45.64" y1="56.03" x2="39.68" y2="55.65"/><line class="cls-1" x1="46.57" y1="62.07" x2="41.19" y2="64.84"/><line class="cls-1" x1="102.73" y1="48.43" x2="108.23" y2="45.96"/><line class="cls-1" x1="103.94" y1="56.75" x2="109.92" y2="56.75"/><line class="cls-1" x1="100.86" y1="67.48" x2="106.24" y2="70.08"/><line class="cls-1" x1="83.27" y1="11.16" x2="86.49" y2="15.59"/><line class="cls-1" x1="96.23" y1="5.17" x2="96.23" y2="11.16"/><line class="cls-1" x1="110.48" y1="11.67" x2="105.48" y2="15.04"/><line class="cls-1" x1="115.17" y1="27.61" x2="108.76" y2="27.35"/><line class="cls-1" x1="52.37" y1="20.03" x2="51.15" y2="25.93"/><line class="cls-1" x1="38.71" y1="22.98" x2="42.66" y2="27.35"/><line class="cls-1" x1="34.83" y1="39.54" x2="39.66" y2="37.07"/></g></svg>