<svg xmlns="http://www.w3.org/2000/svg" viewBox="0 0 150 150"><defs><style>.cls-1,.cls-2{fill:#76cc6e;}.cls-1,.cls-3{stroke:#31842c;stroke-linecap:round;stroke-linejoin:round;stroke-width:2.2px;}.cls-3{fill:none;}</style></defs><title>kategori6</title><g id="Layer_2" data-name="Layer 2"><polygon class="cls-1" points="94.37 143.51 55.63 143.51 46.6 89.72 103.4 89.72 94.37 143.51"/><path class="cls-2" d="M112.73,83.37c0,3.78-3.64,6.88-8.09,6.88H45.36c-4.45,0-8.09-3.1-8.09-6.88s3.64-6.88,8.09-6.88h59.28C109.09,76.49,112.73,79.59,112.73,83.37Z"/><path class="cls-3" d="M112.73,83.37c0,3.78-3.64,6.88-8.09,6.88H45.36c-4.45,0-8.09-3.1-8.09-6.88s3.64-6.88,8.09-6.88h59.28C109.09,76.49,112.73,79.59,112.73,83.37Z"/><path class="cls-1" d="M96.33,46.46a47.51,47.51,0,0,0-11.61,8.17A26.79,26.79,0,0,1,88.77,68a23.77,23.77,0,0,1-1.64,8.44H102.8a21.25,21.25,0,0,0,.8-2.51C107,60.64,96.33,46.46,96.33,46.46Z"/><path class="cls-1" d="M65.1,54.93a47.38,47.38,0,0,0-11.92-8.48S42.55,60.64,45.91,74a21.68,21.68,0,0,0,.8,2.51H62.87A23.77,23.77,0,0,1,61.23,68,26.6,26.6,0,0,1,65.1,54.93Z"/><path class="cls-1" d="M75,43.12S61.23,54.28,61.23,68a23.77,23.77,0,0,0,1.64,8.44H87.13A23.77,23.77,0,0,0,88.77,68C88.77,54.28,75,43.12,75,43.12Z"/><path class="cls-1" d="M75,14.86S61.23,26,61.23,39.79a27.31,27.31,0,0,0,4.48,14.13A47.51,47.51,0,0,1,75,43.12a47.51,47.51,0,0,1,9.29,10.79,27.31,27.31,0,0,0,4.48-14.13C88.77,26,75,14.86,75,14.86Z"/><path class="cls-1" d="M68.85,49.5l.22-.26Z"/><path class="cls-1" d="M67.91,50.71l.16-.22Z"/><path class="cls-1" d="M69.62,48.55l.24-.28Z"/><path class="cls-1" d="M67,52l.33-.47Z"/><path class="cls-1" d="M71.81,46.13,72,45.9Z"/><path class="cls-1" d="M70.38,47.68l.24-.26Z"/><path class="cls-1" d="M71.12,46.87l.24-.25Z"/><path class="cls-1" d="M72.47,45.46l.2-.2Z"/><path class="cls-1" d="M74.44,43.61l.12-.11Z"/><path class="cls-1" d="M65.77,53.82l-.06.1a27.31,27.31,0,0,1-4.48-14.13,27,27,0,0,1,4.19-13.65,47.66,47.66,0,0,0-10.56-7.19S44.23,33.13,47.59,46.48A22.53,22.53,0,0,0,49.82,52a44,44,0,0,1,3.37-5.54A47.38,47.38,0,0,1,65.1,54.93h0C65.32,54.56,65.54,54.19,65.77,53.82Z"/><path class="cls-1" d="M74.06,43.94l.15-.13Z"/><path class="cls-1" d="M66.16,53.22l.36-.56Z"/><path class="cls-1" d="M73.06,44.88l.19-.19Z"/><path class="cls-1" d="M73.6,44.37l.16-.15Z"/><path class="cls-1" d="M76.29,44.26l.25.24Z"/><path class="cls-1" d="M75.85,43.86,76,44Z"/><path class="cls-1" d="M77.39,45.32l.37.37Z"/><path class="cls-1" d="M75.48,43.54l.15.13Z"/><path class="cls-1" d="M82.53,51.3l.53.75Z"/><path class="cls-1" d="M76.8,44.75l.32.31Z"/><path class="cls-1" d="M75.22,43.3l.11.09Z"/><path class="cls-1" d="M75,43.16l.07.06Z"/><path class="cls-1" d="M78.71,46.68l.46.5Z"/><path class="cls-1" d="M95,18.95a47.64,47.64,0,0,0-10.49,7.13,27,27,0,0,1,4.22,13.71,27.31,27.31,0,0,1-4.48,14.13l-.21-.33c.22.35.43.69.64,1h0a47.51,47.51,0,0,1,11.61-8.17,44.36,44.36,0,0,1,3.55,5.9,22.77,22.77,0,0,0,2.43-5.88C105.67,33.13,95,18.95,95,18.95Z"/><path class="cls-1" d="M78,46l.42.44Z"/><path class="cls-1" d="M83.82,53.19l-.51-.77Z"/><path class="cls-1" d="M81.74,50.25l.53.71Z"/><path class="cls-1" d="M81,49.25l.53.67Z"/><path class="cls-1" d="M80.18,48.33l.52.62Z"/><path class="cls-1" d="M79.43,47.47l.49.56Z"/></g></svg>